<?xml version="1.0" standalone="no"?>
<!DOCTYPE svg PUBLIC "-//W3C//DTD SVG 20010904//EN"
 "http://www.w3.org/TR/2001/REC-SVG-20010904/DTD/svg10.dtd">
<svg version="1.0" xmlns="http://www.w3.org/2000/svg"
 width="700.000000pt" height="700.000000pt" viewBox="0 0 700.000000 700.000000"
 preserveAspectRatio="xMidYMid meet">
<metadata>
Created by potrace 1.14, written by Peter Selinger 2001-2017
</metadata>
<g transform="translate(0.000000,700.000000) scale(0.100000,-0.100000)"
fill="#000000" stroke="none">
<path d="M3363 6015 c-17 -7 -36 -22 -42 -34 -8 -13 -11 -196 -11 -570 0 -477
-2 -551 -15 -551 -28 0 -89 -65 -116 -125 -34 -75 -56 -182 -65 -314 -4 -56
-12 -104 -17 -108 -30 -18 -144 176 -167 285 -7 35 -16 59 -20 55 -4 -4 -17
-37 -29 -73 -69 -212 -67 -444 5 -625 19 -50 47 -184 40 -192 -1 -2 -249 389
-550 867 -301 478 -559 879 -573 890 -36 28 -77 25 -114 -8 -64 -58 -110 24
761 -1359 l792 -1258 -7 -69 c-12 -120 -70 -313 -126 -418 l-14 -26 -1220 885
c-671 486 -1233 891 -1249 899 -93 50 -181 -68 -108 -145 15 -16 576 -426
1247 -912 671 -485 1224 -885 1229 -890 11 -10 -25 -66 -176 -273 -61 -83
-116 -150 -123 -148 -6 1 -566 187 -1243 412 -677 226 -1245 410 -1262 410
-40 0 -90 -47 -90 -85 0 -49 26 -82 82 -103 29 -11 584 -196 1233 -412 649
-216 1183 -394 1186 -396 4 -2 -5 -34 -20 -71 -90 -223 -85 -341 20 -503 83
-129 258 -273 432 -356 77 -36 77 -36 77 -75 l0 -39 -264 0 -264 0 -26 -31
c-36 -43 -35 -91 3 -130 l29 -29 194 0 193 0 -122 -122 c-74 -75 -124 -134
-129 -151 -13 -57 37 -117 99 -117 37 0 87 43 295 252 l192 194 0 78 0 77 48
-7 c64 -10 205 -10 275 0 l57 7 0 -77 0 -78 208 -209 c205 -207 241 -237 282
-237 59 0 109 61 96 117 -5 17 -55 76 -129 150 l-122 123 193 0 194 0 29 29
c38 39 39 87 3 130 l-26 31 -264 0 -264 0 0 39 0 39 91 46 c174 87 357 244
428 368 40 69 71 168 71 228 0 57 -38 195 -79 285 l-29 64 1191 396 c953 317
1197 402 1215 421 50 56 11 154 -62 154 -17 0 -571 -180 -1231 -400 -660 -220
-1204 -400 -1210 -399 -11 0 -243 320 -283 391 -15 26 -24 49 -22 51 3 3 547
397 1210 877 662 480 1210 880 1217 889 7 9 13 34 13 57 0 49 -30 82 -81 90
-41 7 105 109 -1384 -970 -1021 -739 -1071 -774 -1081 -753 -23 44 -73 197
-90 274 -10 46 -17 127 -17 198 l-1 121 119 191 120 192 40 -7 c81 -14 426 -7
536 11 139 23 377 80 423 102 52 25 122 107 142 167 33 102 -2 239 -79 304
-64 54 -106 69 -197 69 -97 0 -139 -17 -202 -81 -60 -60 -83 -116 -82 -204 0
-51 6 -86 17 -107 10 -18 16 -33 14 -33 -3 0 -47 19 -98 42 -52 23 -134 56
-184 74 -49 17 -90 34 -90 37 0 2 224 360 498 796 275 435 504 804 510 820 32
86 -87 160 -152 94 -14 -16 -247 -378 -516 -806 l-490 -779 -7 50 c-33 224
-211 420 -433 477 -32 8 -78 15 -102 15 l-43 0 -2 750 -3 750 -25 24 c-33 31
-67 38 -107 21z"/>
<path d="M2615 5816 c-104 -33 -191 -107 -242 -206 -26 -50 -28 -64 -28 -165
0 -100 3 -115 27 -166 38 -76 109 -146 188 -183 59 -28 74 -31 165 -31 88 0
107 3 158 27 108 51 192 159 218 280 32 145 -41 315 -169 396 -90 58 -223 78
-317 48z"/>
<path d="M4075 5816 c-148 -47 -249 -161 -276 -312 -28 -161 63 -334 216 -409
55 -27 69 -30 165 -30 96 0 110 3 165 29 223 110 290 392 140 589 -89 117
-273 176 -410 133z"/>
<path d="M1260 4844 c-284 -76 -379 -436 -170 -644 27 -28 76 -63 108 -78 50
-24 69 -27 162 -27 99 0 109 2 172 33 152 75 241 249 209 409 -46 230 -259
366 -481 307z"/>
<path d="M5442 4845 c-73 -21 -108 -40 -165 -93 -195 -183 -144 -509 98 -628
55 -26 69 -29 165 -29 99 0 109 2 172 33 152 74 240 243 210 402 -25 136 -100
237 -217 291 -79 37 -182 47 -263 24z"/>
<path d="M1935 4060 c-61 -24 -126 -86 -157 -149 -33 -68 -31 -178 4 -246 55
-105 145 -160 263 -159 168 0 294 136 282 305 -10 152 -118 258 -272 266 -53
2 -82 -2 -120 -17z"/>
<path d="M502 3489 c-109 -21 -221 -111 -270 -217 -24 -50 -27 -69 -27 -162 0
-96 3 -110 29 -165 95 -193 329 -273 522 -180 65 32 147 119 182 192 23 50 27
71 27 153 0 86 -3 101 -32 162 -79 167 -250 253 -431 217z"/>
<path d="M6220 3485 c-192 -54 -316 -248 -281 -437 38 -210 235 -350 442 -317
318 51 434 444 197 664 -96 89 -236 124 -358 90z"/>
<path d="M2618 3271 c-53 -34 -88 -97 -88 -157 1 -74 57 -158 123 -183 60 -23
153 -6 200 37 66 59 77 190 21 258 -65 80 -171 99 -256 45z"/>
<path d="M4095 3283 c-75 -39 -111 -107 -103 -193 14 -142 175 -217 296 -137
93 61 109 204 33 291 -46 53 -162 73 -226 39z"/>
<path d="M1332 2884 c-171 -85 -216 -306 -91 -448 103 -117 283 -131 405 -31
131 108 132 328 2 439 -82 71 -220 88 -316 40z"/>
<path d="M5325 2886 c-223 -103 -223 -419 0 -522 70 -33 171 -33 240 0 183 87
224 329 79 468 -84 80 -216 103 -319 54z"/>
<path d="M2093 2520 c-44 -10 -76 -33 -110 -77 -25 -32 -28 -45 -28 -108 0
-89 26 -133 99 -170 57 -29 101 -31 154 -10 172 73 157 315 -23 364 -44 12
-47 12 -92 1z"/>
<path d="M4725 2521 c-152 -37 -204 -214 -96 -322 122 -122 325 -37 325 136 0
120 -115 213 -229 186z"/>
<path d="M493 2125 c-117 -32 -213 -110 -261 -213 -24 -50 -27 -69 -27 -162 0
-96 3 -110 29 -165 76 -153 247 -245 407 -216 132 23 237 102 293 221 28 58
31 75 31 160 0 85 -3 102 -31 160 -54 115 -159 197 -283 220 -69 13 -94 12
-158 -5z"/>
<path d="M6240 2129 c-105 -21 -220 -111 -268 -210 -112 -232 31 -505 287
-550 155 -28 323 56 399 198 122 231 -9 507 -266 562 -60 12 -88 13 -152 0z"/>
<path d="M1378 1737 c-129 -37 -215 -161 -205 -298 10 -149 117 -256 267 -266
168 -12 304 114 304 282 1 195 -180 334 -366 282z"/>
<path d="M5353 1732 c-126 -45 -195 -141 -195 -272 0 -90 29 -157 93 -214 140
-125 350 -92 445 71 32 54 43 159 24 226 -41 150 -220 242 -367 189z"/>
<path d="M2055 1533 c-71 -37 -105 -94 -105 -176 0 -111 92 -194 205 -185 182
15 240 252 87 349 -37 23 -57 29 -101 29 -31 -1 -69 -8 -86 -17z"/>
<path d="M4685 1536 c-42 -19 -74 -52 -96 -100 -72 -159 96 -320 257 -247 95
43 137 166 88 261 -17 34 -63 77 -97 89 -39 15 -116 13 -152 -3z"/>
</g>
</svg>
